Coordinates
version=1
nRows=32
nColumns=30
inDegrees=yes

Units are S.I. units (second, meters, Newtons, ...)
Angles are in degrees.

endheader
time	floatyaw	floatroll	floatpitch	floatx	floaty	floatz	pro_sup_l	deviation_l	flexion_l	cmc_flexion_l	cmc_abduction_l	mp_flexion_l	ip_flexion_l	2mcp_flexion_l	2mcp_abduction_l	2pm_flexion_l	2md_flexion_l	3mcp_flexion_l	3mcp_abduction_l	3pm_flexion_l	3md_flexion_l	4mcp_flexion_l	4mcp_abduction_l	4pm_flexion_l	4md_flexion_l	5mcp_flexion_l	5mcp_abduction_l	5pm_flexion_l	5md_flexion_l
0.005000	-160.147433	-5.066637	-73.570646	-0.057258	-0.099006	-0.082890	117.460024	39.444185	-14.969616	14.009823	40.243967	-19.598206	-56.980627	24.610687	10.087262	54.998585	46.155157	40.420509	6.412383	55.312406	40.000956	41.968994	-5.000744	54.375097	51.266994	25.598279	-14.213138	66.230435	66.588857
0.015000	-160.147433	-5.066637	-73.570646	-0.057231	-0.095630	-0.082446	116.395428	39.556634	-14.952183	13.968792	39.871523	-20.332387	-57.268412	26.127661	10.469924	53.575241	45.349915	41.516906	6.418841	54.436406	39.726915	43.512260	-5.076680	53.076265	51.326785	26.767446	-14.361536	65.250059	66.765616
0.025000	-160.147433	-5.066637	-73.570646	-0.057256	-0.091981	-0.082043	115.270070	39.696999	-14.881629	13.964592	39.509621	-20.932448	-57.355926	27.783331	10.882094	51.999216	44.409157	42.779630	6.418728	53.348627	39.409436	45.321645	-5.165033	51.390561	51.236941	28.151835	-14.482571	63.929210	66.966570
0.035000	-160.147433	-5.066637	-73.570646	-0.057343	-0.088526	-0.081675	114.136470	39.847347	-14.693938	13.980065	39.244673	-21.367232	-57.349327	29.367723	11.266395	50.602667	43.507096	44.099957	6.403246	52.178349	39.052316	47.233276	-5.258801	49.432189	51.038392	29.645420	-14.544062	62.369129	67.179867
0.045000	-160.147433	-5.066637	-73.570646	-0.057451	-0.085724	-0.081349	113.068311	39.958308	-14.367590	13.987165	39.154631	-21.647230	-57.370222	30.632066	11.557125	49.723961	42.802017	45.320043	6.372868	51.110926	38.675660	49.002830	-5.345885	47.460323	50.798610	31.046839	-14.538609	60.779805	67.385734
0.055000	-160.147433	-5.066637	-73.570646	-0.057509	-0.083874	-0.081088	112.132161	39.973611	-13.931810	13.952623	39.272222	-21.806618	-57.501377	31.396991	11.713097	49.541099	42.370733	46.283603	6.336034	50.306384	38.314375	50.386604	-5.414156	45.779182	50.589912	32.132812	-14.482594	59.407215	67.570695
0.065000	-160.147433	-5.066637	-73.570646	-0.057445	-0.083027	-0.080918	111.361527	39.855173	-13.450593	13.851298	39.560820	-21.881226	-57.749299	31.632885	11.743641	49.980657	42.183424	46.891625	6.304270	49.837292	38.007755	51.230797	-5.457757	44.615115	50.460821	32.747299	-14.406546	58.438292	67.731585
0.075000	-160.147433	-5.066637	-73.570646	-0.057222	-0.082995	-0.080866	110.747002	39.596076	-12.990351	13.676790	39.926307	-21.891408	-58.047588	31.464207	11.706554	50.763629	42.134919	47.135748	6.286401	49.676362	37.784451	51.523969	-5.479864	44.034743	50.419366	32.860335	-14.341383	57.933932	67.872637
0.085000	-160.147433	-5.066637	-73.570646	-0.056854	-0.083445	-0.080946	110.247112	39.217673	-12.588809	13.439678	40.260134	-21.836942	-58.297038	31.097729	11.676959	51.552351	42.108695	47.090247	6.284935	49.729485	37.650445	51.384066	-5.489977	43.940889	50.438460	32.564222	-14.306659	57.822896	67.999614
0.095000	-160.147433	-5.066637	-73.570646	-0.056396	-0.084028	-0.081159	109.810889	38.756261	-12.240597	13.153989	40.484820	-21.705408	-58.414187	30.722222	11.708511	52.100544	42.031188	46.868092	6.296101	49.886013	37.586643	50.990031	-5.498254	44.137462	50.477008	32.012555	-14.305559	57.952156	68.113409
0.105000	-160.147433	-5.066637	-73.570646	-0.055908	-0.084485	-0.081485	109.397879	38.248226	-11.904873	12.822978	40.575298	-21.488560	-58.360268	30.437003	11.811788	52.325998	41.889284	46.568337	6.312797	50.057673	37.557396	50.499792	-5.511059	44.420949	50.501529	31.341910	-14.327567	58.160072	68.205734
0.115000	-160.147433	-5.066637	-73.570646	-0.055430	-0.084701	-0.081888	108.986990	37.720457	-11.529341	12.435840	40.551020	-21.196127	-58.141616	30.239600	11.958850	52.290327	41.713311	46.244696	6.328322	50.192829	37.525336	49.999040	-5.529923	44.651533	50.497475	30.622375	-14.355757	58.334367	68.260101
0.125000	-160.147433	-5.066637	-73.570646	-0.054973	-0.084685	-0.082325	108.575047	37.188520	-11.078082	11.977728	40.452284	-20.857688	-57.790957	30.064518	12.104948	52.124159	41.546191	45.907616	6.338881	50.270131	37.465339	49.499933	-5.553080	44.777885	50.468640	29.858823	-14.374268	58.433580	68.258225
0.135000	-160.147433	-5.066637	-73.570646	-0.054525	-0.084525	-0.082757	108.171017	36.660933	-10.549826	11.445458	40.317786	-20.511930	-57.345567	29.840718	12.211674	51.950250	41.418818	45.549033	6.343982	50.285284	37.371813	48.976879	-5.577440	44.818919	50.428472	29.030082	-14.372978	58.473807	68.187198
0.145000	-160.147433	-5.066637	-73.570646	-0.054076	-0.084325	-0.083157	107.790724	36.145436	-9.978990	10.858046	40.172632	-20.191839	-56.833880	29.534671	12.260624	51.838406	41.340133	45.167467	6.345208	50.243073	37.257055	48.409193	-5.599693	44.825130	50.388584	28.132648	-14.348959	58.497846	68.042121
0.155000	-160.147433	-5.066637	-73.570646	-0.053627	-0.084160	-0.083517	107.453035	35.652936	-9.421001	10.255429	40.026478	-19.915921	-56.273314	29.162555	12.255401	51.797951	41.299502	44.777308	6.344676	50.157058	37.142494	47.804981	-5.616810	44.843694	50.350149	27.200129	-14.305924	58.545909	67.823655
0.165000	-160.147433	-5.066637	-73.570646	-0.053194	-0.084061	-0.083840	107.175964	35.196838	-8.930847	9.686147	39.877072	-19.689106	-55.675025	28.774592	12.215466	51.795785	41.275568	44.401471	6.344185	50.050644	37.047537	47.198437	-5.626701	44.900472	50.302933	26.290954	-14.252673	58.639492	67.534667
0.175000	-160.147433	-5.066637	-73.570646	-0.052795	-0.084022	-0.084140	106.971595	34.788482	-8.545194	9.190732	39.715638	-19.509381	-55.049659	28.425851	12.166214	51.785128	41.247279	44.057992	6.345036	49.952853	36.981490	46.629922	-5.629029	44.998932	50.232661	25.458291	-14.200609	58.780198	67.180188
0.185000	-160.147433	-5.066637	-73.570646	-0.052441	-0.084023	-0.084428	106.841105	34.431917	-8.274226	8.789126	39.533094	-19.373743	-54.410841	28.149519	12.128576	51.733291	41.203929	43.751758	6.347954	49.889058	36.941926	46.125252	-5.625469	45.128559	50.131766	24.724467	-14.160140	58.958161	66.770775
0.195000	-160.147433	-5.066637	-73.570646	-0.052131	-0.084044	-0.084712	106.772784	34.121674	-8.103605	8.477535	39.326216	-19.280344	-53.776052	27.944299	12.111292	51.638906	41.150278	43.475588	6.352871	49.872750	36.919067	45.686526	-5.618897	45.275028	50.005838	24.075214	-14.137001	59.162143	66.325354
0.205000	-160.147433	-5.066637	-73.570646	-0.051855	-0.084078	-0.084993	106.745031	33.845080	-8.003268	8.235057	39.101088	-19.228150	-53.165102	27.780098	12.109109	51.531694	41.103641	43.217690	6.358971	49.903376	36.902594	45.296966	-5.611971	45.427726	49.871226	23.474162	-14.130578	59.385308	65.869421
0.215000	-160.147433	-5.066637	-73.570646	-0.051604	-0.084118	-0.085269	106.733398	33.587737	-7.938836	8.035783	38.871228	-19.216705	-52.596004	27.617575	12.108148	51.454848	41.083707	42.969795	6.365376	49.969664	36.886723	44.933953	-5.606108	45.582942	49.745835	22.886089	-14.135574	59.624859	65.428194
0.225000	-160.147433	-5.066637	-73.570646	-0.051370	-0.084162	-0.085536	106.718263	33.339053	-7.881834	7.859828	38.651083	-19.246067	-52.079062	27.430696	12.095656	51.439263	41.100430	42.731760	6.372116	50.054114	36.871347	44.581852	-5.601514	45.741924	49.639753	22.295104	-14.145891	59.877011	65.019076
0.235000	-160.147433	-5.066637	-73.570646	-0.051155	-0.084204	-0.085789	106.689552	33.095185	-7.815896	7.698066	38.449190	-19.315092	-51.612395	27.220485	12.068364	51.483990	41.146891	42.511459	6.380471	50.135611	36.859723	44.238711	-5.598060	45.904791	49.551729	21.709801	-14.157935	60.130838	64.648941
0.245000	-160.147433	-5.066637	-73.570646	-0.050961	-0.084236	-0.086026	106.646944	32.858605	-7.737707	7.549808	38.265370	-19.418248	-51.182918	27.013123	12.034640	51.554360	41.201373	42.320802	6.392138	50.191306	36.855007	43.914864	-5.596137	46.064959	49.472433	21.155329	-14.171284	60.366096	64.317484
0.255000	-160.147433	-5.066637	-73.570646	-0.050788	-0.084254	-0.086245	106.596590	32.635335	-7.653495	7.417265	38.092819	-19.544450	-50.774034	26.844038	12.009666	51.599426	41.237775	42.169469	6.407708	50.201321	36.858031	43.624924	-5.596720	46.210229	49.390459	20.657945	-14.187044	60.559235	64.022441
0.265000	-160.147433	-5.066637	-73.570646	-0.050633	-0.084260	-0.086446	106.546686	32.431654	-7.573376	7.301675	37.922620	-19.680725	-50.376307	26.737091	12.006988	51.579143	41.238734	42.058631	6.425611	50.157114	36.867394	43.377508	-5.600592	46.331802	49.296233	20.230137	-14.205757	60.696158	63.761807
0.275000	-160.147433	-5.066637	-73.570646	-0.050491	-0.084261	-0.086627	106.503781	32.251706	-7.506179	7.203100	37.747618	-19.818730	-49.994144	26.690777	12.031508	51.485720	41.203964	41.977836	6.442432	50.068896	36.880994	43.168441	-5.607440	46.434666	49.182213	19.863589	-14.226455	60.783502	63.532162
0.285000	-160.147433	-5.066637	-73.570646	-0.050359	-0.084268	-0.086786	106.470595	32.096499	-7.456505	7.122139	37.564218	-19.958759	-49.643538	26.679327	12.077659	51.346664	41.148845	41.907687	6.454543	49.965227	36.897097	42.981523	-5.615582	46.539860	49.041679	19.533140	-14.247098	60.849344	63.326110
0.295000	-160.147433	-5.066637	-73.570646	-0.050236	-0.084292	-0.086923	106.445343	31.964114	-7.424504	7.060394	37.372530	-20.107687	-49.342345	26.667700	12.133026	51.208038	41.094166	41.828013	6.460068	49.882157	36.913785	42.796431	-5.622595	46.674483	48.869604	19.209140	-14.265721	60.930795	63.132220
0.305000	-160.147433	-5.066637	-73.570646	-0.050123	-0.084338	-0.087038	106.422493	31.850638	-7.407515	7.018277	37.175902	-20.272436	-49.099811	26.630758	12.184247	51.108666	41.053683	41.727439	6.459966	49.846839	36.927415	42.598857	-5.626393	46.855088	48.666573	18.871270	-14.281313	61.055411	62.938208
0.315000	-160.147433	-5.066637	-73.570646	-0.050021	-0.084406	-0.087132	106.394884	31.751458	-7.402051	6.991925	36.980278	-20.454170	-48.911661	26.564470	12.221368	51.061506	41.027427	41.608533	6.457567	49.865263	36.931996	42.386566	-5.626098	47.076392	48.442419	18.516331	-14.293913	61.228262	62.735067
